<mxfile host="app.diagrams.net" modified="2023-11-08T04:06:05.581Z" agent="Mozilla/5.0 (Windows NT 10.0; Win64; x64) AppleWebKit/537.36 (KHTML, like Gecko) Chrome/119.0.0.0 Safari/537.36 Edg/119.0.0.0" etag="K3IIM4tBrbwc--LFqwJ9" version="22.0.8" type="github">
  <diagram name="Page-1" id="f1b7ffb7-ca1e-a977-7cf5-a751b3c06c05">
    <mxGraphModel dx="1123" dy="799" grid="1" gridSize="10" guides="1" tooltips="1" connect="1" arrows="1" fold="1" page="1" pageScale="1" pageWidth="826" pageHeight="1169" background="none" math="0" shadow="0">
      <root>
        <mxCell id="0" />
        <mxCell id="1" parent="0" />
        <mxCell id="14" value="" style="verticalLabelPosition=bottom;verticalAlign=top;strokeWidth=1;shape=mxgraph.mockup.graphics.iconGrid;strokeColor=#CCCCCC;gridSize=1,1;" parent="1" vertex="1">
          <mxGeometry x="490" y="140" width="200" height="410" as="geometry" />
        </mxCell>
        <mxCell id="2" value="Covid-19 " style="text;spacingTop=-5;fontSize=18;fontStyle=0" parent="1" vertex="1">
          <mxGeometry x="70" y="30" width="230" height="20" as="geometry" />
        </mxCell>
        <mxCell id="3" value="" style="line;strokeWidth=1" parent="1" vertex="1">
          <mxGeometry x="20" y="60" width="670" height="10" as="geometry" />
        </mxCell>
        <mxCell id="4" value="" style="line;strokeWidth=1" parent="1" vertex="1">
          <mxGeometry x="20" y="90" width="670" height="10" as="geometry" />
        </mxCell>
        <mxCell id="5" value="Home" style="text;spacingTop=-5;" parent="1" vertex="1">
          <mxGeometry x="20" y="70.00000000000009" width="30" height="20" as="geometry" />
        </mxCell>
        <mxCell id="6" value="About" style="text;spacingTop=-5;" parent="1" vertex="1">
          <mxGeometry x="59.999999999999936" y="70.00000000000016" width="30" height="20" as="geometry" />
        </mxCell>
        <mxCell id="7" value="Suggestion for improving app" style="text;spacingTop=-5;" parent="1" vertex="1">
          <mxGeometry x="339.9999999999999" y="70" width="30" height="20" as="geometry" />
        </mxCell>
        <mxCell id="10" value="Latest Stats" style="text;spacingTop=-5;" parent="1" vertex="1">
          <mxGeometry x="500" y="120" width="30" height="20" as="geometry" />
        </mxCell>
        <mxCell id="12" value="/*&#xa;-     Total case - xxxxx    &#xa;-    Recovered - xxx     &#xa;-    Under treatment - xx&#xa;-    lost lives - x&#xa;-&#xa;-      &#xa;----------------------------&#xa;--------------------------------*/" style="text;spacingTop=-5;whiteSpace=wrap;align=left" parent="1" vertex="1">
          <mxGeometry x="500" y="150" width="190" height="140" as="geometry" />
        </mxCell>
        <mxCell id="15" value="More" style="text;spacingTop=-5;fontStyle=4" parent="1" vertex="1">
          <mxGeometry x="650" y="290" width="30" height="20" as="geometry" />
        </mxCell>
        <mxCell id="16" value="Yesterday" style="text;spacingTop=-5;fontStyle=0;align=right" parent="1" vertex="1">
          <mxGeometry x="650" y="310" width="30" height="20" as="geometry" />
        </mxCell>
        <mxCell id="17" value="/*     your city stats&#xa;        Total case - xxxxx  &#xa;  &#xa;-    Recovered - xxx    &#xa;-    Under treatment - xx&#xa;-    lost lives - x&#xa;-&#xa;----------------------------&#xa;--------------------------------*/" style="text;spacingTop=-5;whiteSpace=wrap;align=left" parent="1" vertex="1">
          <mxGeometry x="495" y="330" width="190" height="140" as="geometry" />
        </mxCell>
        <mxCell id="18" value="Clisck here to know about Isolated &#xa;and Safe zones info" style="text;spacingTop=-5;fontStyle=4" parent="1" vertex="1">
          <mxGeometry x="495" y="470" width="30" height="20" as="geometry" />
        </mxCell>
        <mxCell id="20" value="" style="verticalLabelPosition=bottom;verticalAlign=top;strokeWidth=1;shape=mxgraph.mockup.graphics.iconGrid;strokeColor=#CCCCCC;gridSize=1,1;" parent="1" vertex="1">
          <mxGeometry x="20" y="15" width="40" height="40" as="geometry" />
        </mxCell>
        <mxCell id="21" value="&#xa;Logo" style="text;spacingTop=-5;align=center" parent="1" vertex="1">
          <mxGeometry x="20" y="20" width="40" height="40" as="geometry" />
        </mxCell>
        <mxCell id="22" value="Headlines " style="text;spacingTop=-5;" parent="1" vertex="1">
          <mxGeometry x="100.99999999999997" y="70.00000000000026" width="30" height="20" as="geometry" />
        </mxCell>
        <mxCell id="23" value="Blog&#39;s Main Topic&#39;s" style="text;spacingTop=-5;" parent="1" vertex="1">
          <mxGeometry x="169.99999999999997" y="70.00000000000003" width="30" height="20" as="geometry" />
        </mxCell>
        <mxCell id="24" value="Help" style="text;spacingTop=-5;" parent="1" vertex="1">
          <mxGeometry x="290" y="70.00000000000013" width="30" height="20" as="geometry" />
        </mxCell>
        <mxCell id="27" value="" style="verticalLabelPosition=bottom;verticalAlign=top;strokeWidth=1;shape=mxgraph.mockup.graphics.iconGrid;strokeColor=#CCCCCC;gridSize=1,1;" parent="1" vertex="1">
          <mxGeometry x="20" y="120" width="450" height="480" as="geometry" />
        </mxCell>
        <mxCell id="28" value="In spot 1" style="text;spacingTop=-5;" parent="1" vertex="1">
          <mxGeometry x="20" y="120" width="30" height="20" as="geometry" />
        </mxCell>
        <mxCell id="29" value="Stay Isolated and take care of all the measures &#xa;&#xa;Prevention is better the  cure for more info check the second article&#xa;&#xa;---------------&#xa;&#xa;--------------&#xa;..." style="text;spacingTop=-5;whiteSpace=wrap;align=left" parent="1" vertex="1">
          <mxGeometry x="20" y="150" width="440" height="190" as="geometry" />
        </mxCell>
        <mxCell id="30" value="" style="verticalLabelPosition=bottom;verticalAlign=top;strokeWidth=1;shape=mxgraph.mockup.graphics.iconGrid;strokeColor=#CCCCCC;gridSize=1,1;" parent="1" vertex="1">
          <mxGeometry x="62.5" y="370" width="360" height="200" as="geometry" />
        </mxCell>
        <mxCell id="31" value="Article&#xa;Picture" style="text;spacingTop=-5;align=center;verticalAlign=middle;fontSize=36;fontColor=#CCCCCC" parent="1" vertex="1">
          <mxGeometry x="65" y="370" width="360" height="200" as="geometry" />
        </mxCell>
        <mxCell id="41" value="" style="verticalLabelPosition=bottom;verticalAlign=top;strokeWidth=1;shape=mxgraph.mockup.misc.rating;strokeColor=#999999;fillColor=#ffff00;emptyFillColor=#ffffff;grade=4;ratingScale=5;ratingStyle=star;" parent="1" vertex="1">
          <mxGeometry x="386.24999999999994" y="585" width="77.5" height="10" as="geometry" />
        </mxCell>
        <mxCell id="42" value="Rate this article" style="text;spacingTop=-5;" parent="1" vertex="1">
          <mxGeometry x="290.00000000000006" y="580" width="30" height="20" as="geometry" />
        </mxCell>
        <mxCell id="48" value="Click here for more info" style="text;spacingTop=-5;" parent="1" vertex="1">
          <mxGeometry x="20" y="580" width="210" height="20" as="geometry" />
        </mxCell>
        <mxCell id="50" value="" style="verticalLabelPosition=bottom;verticalAlign=top;strokeWidth=1;shape=mxgraph.mockup.graphics.iconGrid;strokeColor=#CCCCCC;gridSize=1,1;" parent="1" vertex="1">
          <mxGeometry x="490" y="590" width="200" height="150" as="geometry" />
        </mxCell>
        <mxCell id="51" value="Latest news" style="text;spacingTop=-5;" parent="1" vertex="1">
          <mxGeometry x="500" y="560" width="30" height="20" as="geometry" />
        </mxCell>
        <mxCell id="52" value="Lorem ipsum dolor sit amet, consectetur adipisicing elit" style="text;spacingTop=-5;whiteSpace=wrap;align=left" parent="1" vertex="1">
          <mxGeometry x="500" y="600" width="190" height="40" as="geometry" />
        </mxCell>
        <mxCell id="54" value="Yesterday" style="text;spacingTop=-5;fontStyle=0;align=right" parent="1" vertex="1">
          <mxGeometry x="650" y="640" width="30" height="20" as="geometry" />
        </mxCell>
        <mxCell id="58" value="" style="verticalLabelPosition=bottom;verticalAlign=top;strokeWidth=1;shape=mxgraph.mockup.graphics.iconGrid;strokeColor=#CCCCCC;gridSize=1,1;" parent="1" vertex="1">
          <mxGeometry x="490" y="760" width="200" height="200" as="geometry" />
        </mxCell>
        <mxCell id="59" value="SOS&#xa;" style="text;spacingTop=-5;align=center;verticalAlign=middle;fontSize=36;fontColor=#CCCCCC" parent="1" vertex="1">
          <mxGeometry x="490" y="760" width="200" height="290" as="geometry" />
        </mxCell>
        <mxCell id="60" value="Lorem ipsum dolor sit amet, consectetur adipisicing elit" style="text;spacingTop=-5;whiteSpace=wrap;align=left" parent="1" vertex="1">
          <mxGeometry x="500" y="670" width="190" height="40" as="geometry" />
        </mxCell>
        <mxCell id="61" value="1 Week ago" style="text;spacingTop=-5;fontStyle=0;align=right" parent="1" vertex="1">
          <mxGeometry x="650" y="710" width="30" height="20" as="geometry" />
        </mxCell>
        <mxCell id="Fpq2NuYzuY8f750nrCW2-63" value="" style="rounded=0;whiteSpace=wrap;html=1;" vertex="1" parent="1">
          <mxGeometry x="615" y="15" width="70" height="30" as="geometry" />
        </mxCell>
        <mxCell id="Fpq2NuYzuY8f750nrCW2-64" value="Account Settings" style="text;html=1;strokeColor=none;fillColor=none;align=center;verticalAlign=middle;whiteSpace=wrap;rounded=0;" vertex="1" parent="1">
          <mxGeometry x="615" y="15" width="70" height="30" as="geometry" />
        </mxCell>
        <mxCell id="Fpq2NuYzuY8f750nrCW2-70" value="" style="verticalLabelPosition=bottom;shadow=0;dashed=0;align=center;html=1;verticalAlign=top;strokeWidth=1;shape=mxgraph.mockup.navigation.scrollBar;strokeColor=#999999;barPos=20;fillColor2=#99ddff;strokeColor2=none;direction=north;" vertex="1" parent="1">
          <mxGeometry x="710" y="100" width="20" height="960" as="geometry" />
        </mxCell>
        <mxCell id="Fpq2NuYzuY8f750nrCW2-71" value="" style="verticalLabelPosition=bottom;verticalAlign=top;strokeWidth=1;shape=mxgraph.mockup.graphics.iconGrid;strokeColor=#CCCCCC;gridSize=1,1;" vertex="1" parent="1">
          <mxGeometry x="20" y="620" width="450" height="430" as="geometry" />
        </mxCell>
        <mxCell id="Fpq2NuYzuY8f750nrCW2-72" value="Top ways to keep your self safe" style="text;spacingTop=-5;" vertex="1" parent="1">
          <mxGeometry x="22" y="620" width="30" height="20" as="geometry" />
        </mxCell>
        <mxCell id="Fpq2NuYzuY8f750nrCW2-73" value="1. Stay inside.&#xa;-&#xa;-&#xa;-&#xa;-&#xa;-&#xa;-&#xa;-&#xa;-&#xa;-&#xa;-&#xa;-&#xa;" style="text;spacingTop=-5;whiteSpace=wrap;align=left" vertex="1" parent="1">
          <mxGeometry x="20" y="650" width="440" height="210" as="geometry" />
        </mxCell>
        <mxCell id="Fpq2NuYzuY8f750nrCW2-74" value="" style="verticalLabelPosition=bottom;verticalAlign=top;strokeWidth=1;shape=mxgraph.mockup.graphics.iconGrid;strokeColor=#CCCCCC;gridSize=1,1;" vertex="1" parent="1">
          <mxGeometry x="62.5" y="810" width="360" height="200" as="geometry" />
        </mxCell>
        <mxCell id="Fpq2NuYzuY8f750nrCW2-75" value="Article&#xa;Picture" style="text;spacingTop=-5;align=center;verticalAlign=middle;fontSize=36;fontColor=#CCCCCC" vertex="1" parent="1">
          <mxGeometry x="62.5" y="810" width="360" height="200" as="geometry" />
        </mxCell>
        <mxCell id="Fpq2NuYzuY8f750nrCW2-76" value="" style="verticalLabelPosition=bottom;verticalAlign=top;strokeWidth=1;shape=mxgraph.mockup.misc.rating;strokeColor=#999999;fillColor=#ffff00;emptyFillColor=#ffffff;grade=4;ratingScale=5;ratingStyle=star;" vertex="1" parent="1">
          <mxGeometry x="386.25000000000006" y="1035.0000000000002" width="77.5" height="10" as="geometry" />
        </mxCell>
        <mxCell id="Fpq2NuYzuY8f750nrCW2-77" value="Rate this article" style="text;spacingTop=-5;" vertex="1" parent="1">
          <mxGeometry x="290.0000000000001" y="1030" width="30" height="20" as="geometry" />
        </mxCell>
        <mxCell id="Fpq2NuYzuY8f750nrCW2-78" value="Click here for Youtube video for ..." style="text;spacingTop=-5;" vertex="1" parent="1">
          <mxGeometry x="22" y="1030.0000000000002" width="210" height="20" as="geometry" />
        </mxCell>
        <mxCell id="Fpq2NuYzuY8f750nrCW2-79" value="" style="image;html=1;image=img/lib/clip_art/finance/Pie_Chart_128x128.png" vertex="1" parent="1">
          <mxGeometry x="90" y="410" width="300" height="120" as="geometry" />
        </mxCell>
        <mxCell id="Fpq2NuYzuY8f750nrCW2-80" value="World Stats" style="text;html=1;strokeColor=none;fillColor=none;align=center;verticalAlign=middle;whiteSpace=wrap;rounded=0;" vertex="1" parent="1">
          <mxGeometry x="175" y="345" width="155" height="30" as="geometry" />
        </mxCell>
        <mxCell id="Fpq2NuYzuY8f750nrCW2-82" value="Total Cases" style="text;html=1;strokeColor=none;fillColor=none;align=center;verticalAlign=middle;whiteSpace=wrap;rounded=0;" vertex="1" parent="1">
          <mxGeometry x="90" y="420" width="60" height="30" as="geometry" />
        </mxCell>
        <mxCell id="Fpq2NuYzuY8f750nrCW2-83" value="Recovered" style="text;html=1;strokeColor=none;fillColor=none;align=center;verticalAlign=middle;whiteSpace=wrap;rounded=0;" vertex="1" parent="1">
          <mxGeometry x="100" y="500" width="60" height="30" as="geometry" />
        </mxCell>
        <mxCell id="Fpq2NuYzuY8f750nrCW2-84" value="Active cases" style="text;html=1;strokeColor=none;fillColor=none;align=center;verticalAlign=middle;whiteSpace=wrap;rounded=0;" vertex="1" parent="1">
          <mxGeometry x="230" y="540" width="60" height="30" as="geometry" />
        </mxCell>
        <mxCell id="Fpq2NuYzuY8f750nrCW2-85" value="Dead" style="text;html=1;strokeColor=none;fillColor=none;align=center;verticalAlign=middle;whiteSpace=wrap;rounded=0;" vertex="1" parent="1">
          <mxGeometry x="330" y="450" width="60" height="30" as="geometry" />
        </mxCell>
        <mxCell id="Fpq2NuYzuY8f750nrCW2-86" value="&amp;nbsp; &amp;nbsp; &amp;nbsp; &amp;nbsp;Share" style="text;html=1;strokeColor=none;fillColor=none;align=center;verticalAlign=middle;whiteSpace=wrap;rounded=0;" vertex="1" parent="1">
          <mxGeometry x="485" y="65" width="60" height="30" as="geometry" />
        </mxCell>
      </root>
    </mxGraphModel>
  </diagram>
</mxfile>
